<svg xmlns="http://www.w3.org/2000/svg" width="18" height="12" viewBox="0 0 18 12">
  <path fill="currentColor" d="M9,10 C11.7382919,10 14.1816944,8.4132581 15.3267605,6 C14.1816944,3.5867419 11.7382919,2 9,2 C6.26170806,2 3.81830565,3.5867419 2.67323946,6 C3.81830565,8.4132581 6.26170806,10 9,10 Z M0.654579198,5.6247851 C2.01939313,2.25312347 5.30043773,0 9,0 C12.6995623,0 15.9806069,2.25312347 17.3454208,5.6247851 L17.4973039,6 L17.3454208,6.3752149 C15.9806069,9.74687653 12.6995623,12 9,12 C5.30043773,12 2.01939313,9.74687653 0.654579198,6.3752149 L0.502696066,6 L0.654579198,5.6247851 Z"/>
</svg>