<svg xmlns="http://www.w3.org/2000/svg" width="18" height="14" viewBox="0 0 18 14">
  <path fill="#222222" d="M9,11 C11.7382919,11 14.1816944,9.4132581 15.3267605,7 C14.1816944,4.5867419 11.7382919,3 9,3 C6.26170806,3 3.81830565,4.5867419 2.67323946,7 C3.81830565,9.4132581 6.26170806,11 9,11 Z M0.654579198,6.6247851 C2.01939313,3.25312347 5.30043773,1 9,1 C12.6995623,1 15.9806069,3.25312347 17.3454208,6.6247851 L17.4973039,7 L17.3454208,7.3752149 C15.9806069,10.7468765 12.6995623,13 9,13 C5.30043773,13 2.01939313,10.7468765 0.654579198,7.3752149 L0.502696066,7 L0.654579198,6.6247851 Z"/>
</svg>
