<?xml version="1.0" standalone="no"?>
<!DOCTYPE svg PUBLIC "-//W3C//DTD SVG 20010904//EN"
 "http://www.w3.org/TR/2001/REC-SVG-20010904/DTD/svg10.dtd">
<svg version="1.0" xmlns="http://www.w3.org/2000/svg"
 width="700.000000pt" height="700.000000pt" viewBox="0 0 700.000000 700.000000"
 preserveAspectRatio="xMidYMid meet">
<metadata>
Created by potrace 1.14, written by Peter Selinger 2001-2017
</metadata>
<g transform="translate(0.000000,700.000000) scale(0.100000,-0.100000)"
fill="#000000" stroke="none">
<path d="M1217 6564 c-1 -1 -38 -4 -82 -7 -351 -25 -640 -304 -691 -667 -8
-56 -8 -4744 0 -4784 3 -16 10 -55 17 -85 26 -128 123 -290 233 -388 86 -76
230 -154 314 -169 14 -3 29 -7 33 -10 4 -2 38 -7 76 -11 90 -8 4678 -8 4765 0
337 33 628 317 673 658 10 68 10 4702 1 4786 -37 343 -326 632 -669 669 -48 6
-4664 13 -4670 8z m4655 -692 l33 -32 1 -1295 c0 -713 -3 -1294 -7 -1293 -5 2
-142 136 -306 299 -164 163 -318 309 -343 326 -259 174 -584 181 -846 17 -59
-37 -318 -290 -1451 -1423 l-1378 -1378 -207 1 c-203 1 -207 2 -232 25 -14 13
-30 38 -35 55 -5 19 -8 951 -7 2341 1 2219 2 2312 19 2339 10 15 31 33 47 40
23 9 554 12 2354 11 l2326 0 32 -33z m-1017 -2521 c5 -1 244 -235 530 -522
l521 -520 -1 -562 c-1 -309 -5 -574 -9 -588 -4 -14 -22 -34 -39 -45 -31 -19
-71 -19 -1689 -19 -912 -1 -1658 1 -1658 3 0 11 2243 2244 2262 2251 13 6 34
8 48 6 14 -2 29 -4 35 -4z"/>
<path d="M2529 5246 c-2 -2 -26 -7 -52 -10 -158 -21 -331 -111 -458 -236 -143
-142 -203 -249 -254 -458 -8 -34 -12 -103 -10 -185 2 -110 7 -147 29 -222 83
-278 289 -493 559 -586 112 -38 182 -48 312 -44 354 11 656 226 785 558 16 40
31 84 34 98 3 13 9 47 15 74 18 88 6 278 -23 378 -90 303 -319 527 -621 608
-71 19 -303 37 -316 25z m196 -678 c158 -84 155 -305 -5 -388 -51 -26 -99 -29
-156 -11 -63 20 -105 55 -133 109 -27 54 -31 95 -13 157 37 131 187 196 307
133z"/>
</g>
</svg>
