<?xml version="1.0" standalone="no"?>
<!DOCTYPE svg PUBLIC "-//W3C//DTD SVG 20010904//EN"
 "http://www.w3.org/TR/2001/REC-SVG-20010904/DTD/svg10.dtd">
<svg version="1.0" xmlns="http://www.w3.org/2000/svg"
 width="256.000000pt" height="256.000000pt" viewBox="0 0 256.000000 256.000000"
 preserveAspectRatio="xMidYMid meet">
<metadata>
Created by potrace 1.11, written by Peter Selinger 2001-2013
</metadata>
<g transform="translate(0.000000,256.000000) scale(0.100000,-0.100000)"
fill="#000000" stroke="none">
<path d="M0 1280 l0 -960 1280 0 1280 0 0 960 0 960 -1280 0 -1280 0 0 -960z
m2400 138 l0 -663 -400 400 -400 400 -320 -320 -320 -320 -160 160 -160 160
-240 -240 -240 -240 0 663 0 662 1120 0 1120 0 0 -662z m-398 -495 c289 -289
398 -404 398 -420 l0 -23 -1120 0 -1120 0 0 23 c0 16 68 90 240 262 l240 240
160 -160 160 -160 318 318 c174 174 319 317 322 317 3 0 184 -179 402 -397z"/>
<path d="M785 1901 c-156 -70 -194 -271 -74 -390 151 -151 409 -44 409 169 0
133 -107 240 -240 240 -32 0 -72 -8 -95 -19z"/>
</g>
</svg>
