<svg xmlns="http://www.w3.org/2000/svg" width="16" height="16" fill="none"><path fill="currentColor" fill-rule="evenodd" d="M6 8a2 2 0 1 0 0-4 2 2 0 0 0 0 4Zm0-1.5a.5.5 0 1 0 0-1 .5.5 0 0 0 0 1Z" clip-rule="evenodd"/><path fill="currentColor" fill-rule="evenodd" d="M2.75 1A1.75 1.75 0 0 0 1 2.75v10.5A1.75 1.75 0 0 0 2.75 15h10.5A1.75 1.75 0 0 0 15 13.25V2.75A1.75 1.75 0 0 0 13.25 1H2.75ZM13.5 8.6V2.75a.25.25 0 0 0-.25-.25H2.75a.25.25 0 0 0-.25.25v10.5c0 .138.112.25.25.25h.85l6.163-6.162a1.75 1.75 0 0 1 2.474 0L13.5 8.6Zm-7.778 4.9h7.528a.25.25 0 0 0 .25-.25v-2.528l-2.323-2.323a.25.25 0 0 0-.354 0L5.722 13.5Z" clip-rule="evenodd"/></svg>
